<svg
  version="1.1" xmlns="http://www.w3.org/2000/svg" xmlns:xlink="http://www.w3.org/1999/xlink" viewBox="0 0 2588.5 874.4"
>
  <polygon points="835.9,535.5 835.9,535.5 835.9,535.5 	"/>
  <path d="M1020.6,526.3v-38.5h64.6l0,55.6l-41.6,41.6l-141.1,0l0-270.6l41.4-41.4l141.3,0l0,117.4h-64.6v-58.6h-53.7
      v194.4L1020.6,526.3z"/>
  <path d="M1114,273.1h184.4v312.4H1114V273.1z M1177.5,527.6l57.5,0V331.1l-57.5,0V527.6z"/>
  <path d="M1470.6,273.2l40.9,40.9l0,227.2l-44.2,44.2H1327l0.3-312.4l136.5,0H1470.6z M1448.1,527.6l0-196.4h-57.6
    v196.4H1448.1z"/>
  <path d="M1540.2,273.1h156.9v58h-93.4v58.4l85.4,0v56.1l-85.4,0v81.9h93.4v58h-156.9V273.1z"/>
  <path d="M1890.1,585.5h-164.9v-96.7l59.2-0.3v39h44.7v-49.7l-103.9-77.6V273.1h164.9v92.4l-59.2,0l0.1-34.4h-44.8
      V372l103.9,77.2V585.5z"/>
  <path d="M2106.2,331.1h-62l0,254.4h-63.5l0-254.4h-62v-58h187.4V331.1z"/>
  <polygon points="835.5,272.3 727.7,346.1 610.5,346.1 667.6,306.8 539.1,306.8 589.3,272.3 		"/>
  <polygon points="597.6,345 597.6,346.1 410.9,346.1 519.2,272.3 576.7,272.2 517.3,313.1 644.3,313.1 		"/>
  <polygon points="727.7,564.9 598.8,564.9 598.8,614.2 534.1,614.2 534.1,586.6 410.9,586.6 410.9,502.3 534.1,502.3
    534.1,439.4 478.1,439.4 478.1,471.8 525,471.8 525,493.6 410.9,493.6 410.9,346.1 597.6,346.1 597.6,487.5 653.5,487.5
    653.5,455.2 606.3,455.2 606.3,348.9 610.5,346.1 727.7,346.1 		"/>
  <polygon points="835.5,528.2 822.4,537.2 822.4,450.9 770.4,486.5 770.4,535.6 727.7,564.8 727.7,346.1 835.5,272.3
        "/>
  <polyline points="608.2,573.7 608.3,623.6 525,623.6 525,595.4 410.9,595.4 410.9,661 727.7,661 727.7,573.7
    608.2,573.7 		"/>
  <polyline points="835.6,587.1 727.8,661 727.8,573.7 777,539.9 777,490.9 816.4,463.9 816.4,549 835.6,535.9
    835.6,587.1 		"/>
</svg>
